<svg width="734" height="381" viewBox="0 0 734 381" fill="none" xmlns="http://www.w3.org/2000/svg">
<g opacity="0.2">
<path opacity="0.2" d="M522.215 280.221L505.603 286.947M581.211 383.493C581.211 361.907 581.211 323.495 581.211 292.371C581.211 275.878 581.211 261.432 581.211 252.621C581.211 249.74 581.281 246.47 581.425 242.836L581.211 383.493ZM636.247 25.8154L614.552 42.9388C613.563 47.0036 611.904 52.3571 610.329 57.6161L636.247 25.8154ZM606.983 69.8471L639.179 47.2197L606.983 69.8471ZM606.983 69.8471C607.741 66.3831 609.006 62.0329 610.329 57.6161L606.983 69.8471ZM606.983 69.8471C605.912 74.7324 604.875 79.6295 603.871 84.5243L606.983 69.8471ZM600.719 100.425L638.006 74.7395L600.719 100.425ZM600.719 100.425C601.731 95.1393 602.781 89.8331 603.871 84.5243L600.719 100.425ZM600.719 100.425C600.054 103.901 599.406 107.368 598.774 110.821L600.719 100.425ZM596.917 121.218L631.556 101.648L596.917 121.218ZM596.917 121.218C597.518 117.77 598.138 114.302 598.774 110.821L596.917 121.218ZM596.917 121.218C596.343 124.505 595.588 128.985 594.849 133.448L596.917 121.218ZM592.854 145.68L618.656 129.779L592.854 145.68ZM592.854 145.68C593.37 142.45 594.102 137.958 594.849 133.448L592.854 145.68ZM592.854 145.68C586.138 187.779 582.265 221.549 581.425 242.836L592.854 145.68ZM538.68 256.37C551.018 246.72 570.935 245.013 581.211 278.305L538.68 256.37ZM538.68 256.37C536.823 257.822 530.428 263.156 525.162 273.493L538.68 256.37ZM538.68 256.37C546.568 262.404 537.005 266.961 534.103 283.278L538.68 256.37ZM538.68 256.37C523.211 254.578 511.433 269.337 505.603 286.947L538.68 256.37ZM610.329 57.6161L589.336 39.2695L610.329 57.6161ZM603.871 84.5243L578.781 65.5663L603.871 84.5243ZM598.774 110.821L573.503 94.9207L598.774 110.821ZM594.849 133.448L573.503 121.218L594.849 133.448ZM581.425 242.836C583.681 213.481 626.313 164.637 644.457 142.01L581.425 242.836ZM525.162 273.493L534.103 283.278L525.162 273.493ZM525.162 273.493C524.121 275.537 523.124 277.777 522.215 280.221L525.162 273.493ZM534.103 283.278C533.769 285.155 533.523 287.186 533.402 289.394C533.164 293.74 532.926 298.565 532.57 303.46L534.103 283.278ZM519.513 289.394L532.57 303.46L519.513 289.394ZM519.513 289.394C518.917 292.066 518.437 294.918 518.105 297.956L519.513 289.394ZM519.513 289.394C520.256 286.061 521.179 283.008 522.215 280.221L519.513 289.394ZM532.57 303.46C532.161 309.079 531.597 314.788 530.7 319.971L532.57 303.46ZM517.607 305.905L530.7 319.971L517.607 305.905ZM517.607 305.905C517.554 308.818 517.634 311.874 517.87 315.079L517.607 305.905ZM517.607 305.905C517.658 303.125 517.83 300.476 518.105 297.956L517.607 305.905ZM530.7 319.971C529.793 325.208 528.546 329.906 526.774 333.425L530.7 319.971ZM526.774 333.425C524.304 338.331 520.815 340.946 515.81 339.541C510.739 338.117 507.118 334.344 504.793 329.144L526.774 333.425ZM526.774 333.425L518.742 323.029C518.345 320.283 518.058 317.634 517.87 315.079L526.774 333.425ZM517.87 315.079L504.793 329.144L517.87 315.079ZM504.793 329.144C502.336 323.649 501.329 316.558 501.591 308.963L504.793 329.144ZM518.105 297.956L501.591 308.963L518.105 297.956ZM501.591 308.963C501.84 301.769 503.228 294.122 505.603 286.947L501.591 308.963Z" stroke="white" stroke-width="2"/>
<path opacity="0.2" d="M669.089 227.627C657.948 227.627 582.386 209.295 581.213 289.409M669.089 227.627C655.016 237.57 650.324 238.635 645.633 231.296C642.701 226.709 647.392 212.95 669.089 227.627ZM669.089 227.627C681.404 235.958 707.01 255.147 713.656 264.32C718.348 271.047 745.909 251.478 723.039 219.677C704.743 194.237 683.163 217.685 669.089 227.627Z" stroke="white" stroke-width="2"/>
<path opacity="0.2" d="M635.154 88.2858C630.304 107.971 622.571 124.845 614.031 136.216C609.76 141.903 605.318 146.173 600.972 148.747C596.632 151.317 592.446 152.164 588.61 151.136C584.773 150.108 581.498 147.261 578.883 142.827C576.265 138.387 574.348 132.412 573.235 125.283C571.011 111.026 572.038 92.3549 576.889 72.6701C581.739 52.9852 589.472 36.111 598.012 24.7395C602.283 19.0524 606.725 14.7821 611.071 12.2087C615.411 9.6389 619.597 8.79187 623.433 9.82005C627.27 10.8483 630.545 13.695 633.16 18.1287C635.778 22.5684 637.695 28.5434 638.808 35.6732C641.032 49.9294 640.005 68.601 635.154 88.2858Z" stroke="white" stroke-width="2"/>
<path opacity="0.2" d="M560.24 121.829C568.141 132.403 573.085 143.705 574.726 153.394C576.376 163.136 574.659 170.952 569.671 175.006C564.682 179.061 556.994 178.886 548.34 174.837C539.732 170.809 530.431 163.047 522.531 152.474C514.58 141.833 505.207 127.107 499.182 113.971C496.165 107.395 494.019 101.283 493.282 96.314C492.537 91.2885 493.279 87.7966 495.54 85.9589C497.871 84.0649 501.953 83.7765 507.364 85.0629C512.702 86.332 519.041 89.0658 525.583 92.7625C538.675 100.16 552.367 111.293 560.24 121.829Z" stroke="white" stroke-width="2"/>
<path opacity="0.2" d="M558.369 160.356H528.938M523.074 115.713C526.566 117.822 530.566 121.006 534.802 125.344L523.074 115.713ZM581.213 307.449C581.213 245.692 575.686 201.348 562.748 170.141L581.213 307.449ZM534.802 125.344L528.938 95.5322L534.802 125.344ZM534.802 125.344C537.28 127.881 539.839 130.814 542.425 134.156L534.802 125.344ZM551.84 148.126L546.53 107.764L551.84 148.126ZM551.84 148.126C548.726 142.849 545.556 138.202 542.425 134.156L551.84 148.126ZM551.84 148.126C554.056 151.88 556.244 155.954 558.369 160.356L551.84 148.126ZM562.748 170.141L565.295 129.779L562.748 170.141ZM562.748 170.141C561.328 166.715 559.864 163.454 558.369 160.356L562.748 170.141ZM542.425 134.156H511.346H542.425Z" stroke="white" stroke-width="2"/>
<path opacity="0.2" d="M630.119 202.542C619.409 210.189 606.925 210.825 599.435 203.731C594.806 199.348 592.814 192.741 593.442 185.497C594.07 178.252 597.321 170.439 603.091 163.813C608.946 157.089 617.508 149.174 625.788 144.11C629.933 141.574 633.944 139.792 637.471 139.192C640.983 138.595 643.899 139.184 646.055 141.225C648.255 143.309 649.619 146.854 650.164 151.405C650.705 155.93 650.417 161.302 649.453 166.845C647.565 177.697 643.134 188.966 637.591 195.621L624.206 191.763L621.241 190.908L623.156 193.418L630.119 202.542Z" stroke="white" stroke-width="2"/>
<path opacity="0.2" d="M615.726 295.51C603.995 288.171 608.106 280.832 618.506 282.666M581.213 349.085C581.213 316.061 593.443 290.617 615.726 295.51L581.213 349.085ZM615.726 295.51C633.553 299.423 671.24 311.818 687.854 317.525C698.41 307.74 681.99 292.451 666.744 282.666C644.332 268.284 625.395 269.402 618.506 282.666L615.726 295.51ZM615.726 295.51C615.726 290.438 616.704 286.136 618.506 282.666L615.726 295.51Z" stroke="white" stroke-width="2"/>
<path opacity="0.2" d="M517.91 185.43C535.66 175.645 580.743 187.467 581.213 275.53M517.91 185.43C521.958 182.732 526.009 179.052 532.456 178.092C541.256 176.78 550.72 181.826 544.774 185.798C534.219 192.849 521.195 185.227 517.91 185.43ZM517.91 185.43C506.896 192.772 500.126 197.707 498.448 227.015C496.103 267.989 474.992 233.131 472.646 216.007C470.301 198.884 475.803 182.983 517.91 185.43Z" stroke="white" stroke-width="2"/>
<path opacity="0.2" d="M456.564 1.78564H289.713V246.73H456.564V1.78564Z" stroke="white" stroke-width="2"/>
<path opacity="0.2" d="M449.918 8.72461H296.362V239.79H449.918V8.72461Z" stroke="white" stroke-width="2"/>
<path opacity="0.2" d="M433.963 36.481H312.316V212.034H433.963V36.481Z" stroke="white" stroke-width="2"/>
<path opacity="0.2" d="M357.85 36.8252C364.306 54.0346 370.802 68.7185 377.131 81.2354M433.633 151.32C433.633 151.32 421.564 146.541 404.41 124.951L433.633 151.32Z" stroke="white" stroke-width="2"/>
<path opacity="0.2" d="M377.154 78.3679C377.593 49.732 401.486 51.5706 413.377 56.0694C413.926 56.0694 415.353 56.8909 416.671 60.1768C418.317 64.2842 419.415 97.7321 418.866 101.253C418.317 104.774 413.377 112.402 404.596 124.138C395.815 135.874 397.461 149.371 387.582 159.933C377.703 170.496 374.958 164.041 373.312 162.867C371.665 161.693 373.312 153.478 371.665 144.677C370.019 135.874 372.763 126.486 373.312 121.791C373.86 117.097 376.605 114.162 377.154 78.3679Z" stroke="white" stroke-width="2"/>
<path opacity="0.2" d="M342.693 211.69C337.838 210.122 327.453 206.514 324.764 204.632C323.083 203.455 321.402 201.102 320.281 199.926C319.385 198.985 313.931 190.515 311.316 186.397M311.316 163.457L323.083 159.928C326.445 158.752 328.686 158.752 330.927 159.34C333.168 159.928 348.297 162.281 352.219 163.457C356.141 164.633 361.184 167.574 364.545 171.104C367.907 174.633 387.518 195.809 388.639 197.573C389.759 199.338 389.759 199.926 389.759 201.102C389.759 202.279 389.199 208.75 387.518 211.69L311.316 163.457Z" stroke="white" stroke-width="2"/>
<path opacity="0.2" d="M349.645 67.6654C348.581 68.2205 344.77 70.6723 342.997 71.8288C341.667 72.691 341.667 74.6051 342.332 80.8503C342.997 87.0954 344.326 89.8711 345.656 89.8711C346.986 89.8711 348.315 90.5649 350.309 90.5649C352.304 90.5649 352.968 90.5649 354.298 89.8711C355.628 89.1771 358.287 86.4016 359.616 85.0137C360.68 83.9035 360.946 82.238 360.946 81.5441V75.9929C360.946 74.6051 360.281 73.2172 358.951 71.8288C357.622 70.4404 353.633 67.6654 352.968 67.6654C352.304 67.6654 350.974 66.9714 349.645 67.6654Z" stroke="white" stroke-width="2"/>
<path opacity="0.2" d="M-8.0386 380.31L-32.2085 477.89C-32.7356 480.249 -31.4714 482.642 -29.2654 483.462C-27.0595 484.281 -24.6089 483.268 -23.5605 481.102L9.91016 392.106" stroke="white" stroke-width="2" stroke-linejoin="round"/>
<path opacity="0.2" d="M9.48761 267.132L-8.73682 157.336C-10.4601 146.954 -19.9256 139.998 -29.8703 141.805C-39.774 143.605 -46.4201 153.42 -44.7404 163.765L-21.3338 304.674" stroke="white" stroke-width="2"/>
<path opacity="0.2" d="M182.75 326.879L154.85 166.751C152.103 150.987 138.897 139.523 123.482 139.523H-21.491C-27.0168 139.523 -33.4039 141.719 -37.2886 145.076" stroke="white" stroke-width="2"/>
<path opacity="0.2" d="M235.933 276.918L260.781 279.763C276.904 281.622 289.114 295.976 289.114 313.072V359.986C289.114 378.493 274.882 393.495 257.326 393.495H234.076" stroke="white" stroke-width="2"/>
<path opacity="0.2" d="M172.115 269.979L239.967 277.324C254.314 278.95 265.183 291.579 265.183 306.622V363.92C265.183 375.814 258.423 386.062 248.69 390.719" stroke="white" stroke-width="2"/>
<path opacity="0.2" d="M166.581 378.229H243.514C247.404 378.229 250.558 381.646 250.558 385.861C250.558 390.077 247.404 393.495 243.514 393.495H98.9902" stroke="white" stroke-width="2"/>
<path opacity="0.2" d="M161.595 326.879H232.591C246.184 326.879 257.204 338.374 257.204 352.554C257.204 366.734 246.184 378.229 232.591 378.229H156.159" stroke="white" stroke-width="2"/>
<path opacity="0.2" d="M-22.0316 303.72C-24.7855 282.661 -7.8933 264.573 12.116 267.095L106.765 279.025C122.232 280.974 133.888 294.797 133.888 311.224V361.41C133.888 379.329 120.099 393.838 103.108 393.838H16.5831C1.21436 393.838 -11.8086 381.891 -13.9082 365.836L-22.0316 303.72Z" stroke="white" stroke-width="2"/>
<path opacity="0.2" d="M62.7284 274.143L133.275 282.895C149.363 284.891 161.478 299.109 161.478 315.993V360.162C161.478 378.571 147.158 393.495 129.494 393.495H49.7969" stroke="white" stroke-width="2"/>
<path opacity="0.2" d="M99.0293 160.968C99.0293 160.968 111.93 185.43 107.313 208.581C106.904 210.638 107.313 212.617 107.798 213.474C109.229 216.007 117.794 234.965 114.419 257.181C114.028 259.757 114.478 261.175 115.011 262.074C116.419 264.447 120.15 271.289 122.486 281.443" stroke="white" stroke-width="2" stroke-linecap="round"/>
<path opacity="0.2" d="M45.0791 160.968C45.0791 160.968 57.9801 185.43 53.3633 208.581C52.9533 210.638 53.3633 212.617 53.8478 213.474C55.2788 216.007 63.8441 234.965 60.4689 257.181C60.0775 259.757 60.5281 261.175 61.0611 262.074C62.1006 263.826 64.4068 268.37 66.4826 274.717" stroke="white" stroke-width="2" stroke-linecap="round"/>
<path opacity="0.2" d="M52.1161 216.008C54.0593 216.008 55.6345 214.365 55.6345 212.338C55.6345 210.312 54.0593 208.669 52.1161 208.669C50.1729 208.669 48.5977 210.312 48.5977 212.338C48.5977 214.365 50.1729 216.008 52.1161 216.008Z" fill="white"/>
<path opacity="0.2" d="M106.066 216.008C108.009 216.008 109.584 214.365 109.584 212.338C109.584 210.312 108.009 208.669 106.066 208.669C104.123 208.669 102.548 210.312 102.548 212.338C102.548 214.365 104.123 216.008 106.066 216.008Z" fill="white"/>
<path opacity="0.2" d="M59.1532 264.932C61.0964 264.932 62.6716 263.289 62.6716 261.263C62.6716 259.236 61.0964 257.593 59.1532 257.593C57.21 257.593 55.6348 259.236 55.6348 261.263C55.6348 263.289 57.21 264.932 59.1532 264.932Z" fill="white"/>
<path opacity="0.2" d="M113.103 264.932C115.046 264.932 116.621 263.289 116.621 261.263C116.621 259.236 115.046 257.593 113.103 257.593C111.16 257.593 109.585 259.236 109.585 261.263C109.585 263.289 111.16 264.932 113.103 264.932Z" fill="white"/>
</g>
</svg>
